<svg xmlns="http://www.w3.org/2000/svg" xmlns:svg="http://www.w3.org/2000/svg" xmlns:xlink="http://www.w3.org/1999/xlink" version="1.0" height="770pt" width="1158.5507309436798pt" viewBox="130 -23 1166.5507309436798 776" ><defs><style type="text/css">
            @font-face {
                font-family: 'noto_regular';
                src: url('https://app.creately.com/diagram/assets/fonts/noto/noto-regular.woff') format('woff'),
                     url('https://app.creately.com/diagram/assets/fonts/noto/noto-regular.woff2') format('woff2');
                font-weight: normal;
                font-style: normal;
            }
        p {
            margin: 0;
        }
        </style></defs><defs><style>
            span{ display: inline-block; }
        </style></defs><g id="yvr8y8fn5c"><g transform="translate(888.25 410)"><rect x="0" y="0" width="100.5217455625534" height="52" fill="rgba(255,255,255,1)" stroke="#5e5ca7" stroke-width="1.5" stroke-linecap="round" stroke-linejoin="round"/></g><g transform="translate(922.0108727812767, 426.5) rotate(0, 16.5, 9.5)" width="33" height="19"><text text-decoration="none" x="3.5" fill="rgb(0, 0, 0)" font-weight="bold" font-size="10pt" font-family="Arial"  y="15">Pets</text><text text-decoration="none" x="29.5" fill="#4b4b4b" font-size="10pt" font-family="noto_regular"  y="15"></text></g></g><g id="1rknyw7t7m"><g transform="translate(1025 595)"><ellipse cx="49.768119126558304" cy="25.5" rx="49.768119126558304" ry="25.5" fill="rgba(255,255,255,1)" stroke="#5e5ca7" stroke-width="1.5" stroke-linecap="round" stroke-linejoin="round"/></g><g transform="translate(1045.7681191265583, 611) rotate(0, 29, 9.5)" width="58" height="19"><text text-decoration="none" x="5" fill="rgb(0, 0, 0)" font-weight="bold" font-size="10pt" font-family="Arial"  y="15">PetType</text><text text-decoration="none" x="53" fill="#4b4b4b" font-size="10pt" font-family="noto_regular"  y="15"></text></g></g><g id="1o8iwccyo0"><g transform="translate(1105 570)"><ellipse cx="49.768119126558304" cy="25.5" rx="49.768119126558304" ry="25.5" fill="rgba(255,255,255,1)" stroke="#5e5ca7" stroke-width="1.5" stroke-linecap="round" stroke-linejoin="round"/></g><g transform="translate(1133.2681191265583, 586) rotate(0, 21.5, 9.5)" width="43" height="19"><text text-decoration="none" x="4.5" fill="rgb(0, 0, 0)" font-weight="bold" font-size="10pt" font-family="Arial"  y="15">Breed</text><text text-decoration="none" x="38.5" fill="#4b4b4b" font-size="10pt" font-family="noto_regular"  y="15"></text></g></g><g id="1i956zuqza"><g transform="translate(490 270)"><rect x="0" y="0" width="100.5217455625534" height="52" fill="rgba(255,255,255,1)" stroke="#5e5ca7" stroke-width="1.5" stroke-linecap="round" stroke-linejoin="round"/></g><g transform="translate(500.7608727812767, 286.5) rotate(0, 39.5, 9.5)" width="79" height="19"><text text-decoration="none" x="7.5" fill="rgb(0, 0, 0)" font-weight="bold" font-size="10pt" font-family="Arial"  y="15">Customers</text><text text-decoration="none" x="71.5" fill="#4b4b4b" font-size="10pt" font-family="noto_regular"  y="15"></text></g></g><g id="u3n7x923gb"><g transform="translate(1120 400)"><rect x="0" y="0" width="100.5217455625534" height="52" fill="rgba(255,255,255,1)" stroke="#5e5ca7" stroke-width="1.5" stroke-linecap="round" stroke-linejoin="round"/></g><g transform="translate(1139.7608727812767, 416.5) rotate(0, 30.5, 9.5)" width="61" height="19"><text text-decoration="none" x="6" fill="rgb(0, 0, 0)" font-weight="bold" font-size="10pt" font-family="Arial"  y="15">Supplies</text><text text-decoration="none" x="55" fill="#4b4b4b" font-size="10pt" font-family="noto_regular"  y="15"></text></g></g><g id="23ftch9e0j"><g><path d="M 938.25,460 L 1155,570" fill="none" stroke="#5e5ca7" stroke-width="1.5" stroke-linecap="round" stroke-linejoin="round"/></g></g><g id="8lb4e3gnbs"><g><path d="M 938.25,460 L 1075,595" fill="none" stroke="#5e5ca7" stroke-width="1.5" stroke-linecap="round" stroke-linejoin="round"/></g></g><g id="5gsrcpyjcd"><g transform="translate(360 185)"><ellipse cx="49.768119126558304" cy="25.5" rx="49.768119126558304" ry="25.5" fill="rgba(255,255,255,1)" stroke="#5e5ca7" stroke-width="1.5" stroke-linecap="round" stroke-linejoin="round"/></g><g transform="translate(366.2681191265583, 201) rotate(0, 43.5, 9.5)" width="87" height="19"><text text-decoration="underline" x="9" fill="rgb(0, 0, 0)" font-weight="bold" font-size="10pt" font-family="Arial"  y="15">CustomerID</text><text text-decoration="none" x="78" fill="#4b4b4b" font-size="10pt" font-family="noto_regular"  y="15"></text></g></g><g id="d63i13my82"><g transform="translate(355 285)"><ellipse cx="49.768119126558304" cy="25.5" rx="49.768119126558304" ry="25.5" fill="rgba(255,255,255,1)" stroke="#5e5ca7" stroke-width="1.5" stroke-linecap="round" stroke-linejoin="round"/></g><g transform="translate(347.7681191265583, 301) rotate(0, 57, 9.5)" width="114" height="19"><text text-decoration="none" x="11.5" fill="rgb(0, 0, 0)" font-weight="bold" font-size="10pt" font-family="Arial"  y="15">CustomerName</text><text text-decoration="none" x="102.5" fill="#4b4b4b" font-size="10pt" font-family="noto_regular"  y="15"></text></g></g><g id="d9zfy2pvbg"><g transform="translate(520 480)"><ellipse cx="47.23170447349548" cy="25.5" rx="47.23170447349548" ry="25.5" fill="rgba(255,255,255,1)" stroke="#5e5ca7" stroke-width="1.5" stroke-linecap="round" stroke-linejoin="round"/></g><g transform="translate(511.7317044734955, 496) rotate(0, 55.5, 9.5)" width="111" height="19"><text text-decoration="underline" x="10.5" fill="rgb(0, 0, 0)" font-weight="bold" font-size="10pt" font-family="Arial"  y="15">CustomerVisits</text><text text-decoration="none" x="100.5" fill="#4b4b4b" font-size="10pt" font-family="noto_regular"  y="15"></text></g></g><g id="4dcbdby377"><g><path d="M 490,295 L 460,210" fill="none" stroke="#5e5ca7" stroke-width="1.5" stroke-linecap="round" stroke-linejoin="round"/></g></g><g id="2f1w50rj0j"><g><path d="M 490,295 L 455,310" fill="none" stroke="#5e5ca7" stroke-width="1.5" stroke-linecap="round" stroke-linejoin="round"/></g></g><g id="51pjhn2a81"><g><path d="M 540,435 L 565,480" fill="none" stroke="#5e5ca7" stroke-width="1.5" stroke-linecap="round" stroke-linejoin="round"/></g></g><g id="1jor20lcnj"><g><path d="M 935.5,336 C 953.035,364.56 990.61,374.76 1060.75,370 C 1087.8549606670667,368.16054159145654 1109.4549606670666,359.46054159145655 1132.75,341 C 1132.75,341 1132.75,341 1132.75,341" fill="none" stroke="#000000" stroke-width="1" stroke-linecap="round" stroke-linejoin="round"/></g></g><g id="2mbacf4zr6"><g transform="translate(1095 180)"><ellipse cx="49.768119126558304" cy="25.5" rx="49.768119126558304" ry="25.5" fill="rgba(255,255,255,1)" stroke="#5e5ca7" stroke-width="1.5" stroke-linecap="round" stroke-linejoin="round"/></g><g transform="translate(1108.2681191265583, 196) rotate(0, 36.5, 9.5)" width="73" height="19"><text text-decoration="underline" x="8" fill="rgb(0, 0, 0)" font-weight="bold" font-size="10pt" font-family="Arial"  y="15">ProductID</text><text text-decoration="none" x="65" fill="#4b4b4b" font-size="10pt" font-family="noto_regular"  y="15"></text></g></g><g id="7i57tz7pz2"><g transform="translate(1170 290)"><ellipse cx="49.768119126558304" cy="25.5" rx="49.768119126558304" ry="25.5" fill="rgba(255,255,255,1)" stroke="#5e5ca7" stroke-width="1.5" stroke-linecap="round" stroke-linejoin="round"/></g><g transform="translate(1201.2681191265583, 306) rotate(0, 18.5, 9.5)" width="37" height="19"><text text-decoration="none" x="3.5" fill="rgb(0, 0, 0)" font-weight="bold" font-size="10pt" font-family="Arial"  y="15">Price</text><text text-decoration="none" x="33.5" fill="#4b4b4b" font-size="10pt" font-family="noto_regular"  y="15"></text></g></g><g id="cnnrkanasc"><g transform="translate(745 265)"><path d="M 98.55073094367981,25 L 49.275365471839905,50 L 0,25 L 49.275365471839905,0 Z" fill="rgb(255, 255, 255)" stroke="rgb(94, 92, 167)" stroke-width="1.5" vector-effect="non-scaling-stroke"/></g><g transform="translate(752.8275, 279.28) rotate(0, 0, 0)" width="92" height="19"><text text-decoration="none" x="0" fill="#000000" font-weight="bold" font-size="11pt" font-family="Arial"  y="15">Purchases&#160;</text><text text-decoration="none" x="75" fill="#4b4b4b" font-size="10pt" font-family="noto_regular"  y="15"></text></g></g><g id="db6wxjdxzu"><g transform="translate(660 185)"><ellipse cx="49.768119126558304" cy="25.5" rx="49.768119126558304" ry="25.5" fill="rgba(255,255,255,1)" stroke="#5e5ca7" stroke-width="1.5" stroke-linecap="round" stroke-linejoin="round"/></g><g transform="translate(678.7681191265583, 201) rotate(0, 31, 9.5)" width="62" height="19"><text text-decoration="none" x="7" fill="rgb(0, 0, 0)" font-weight="bold" font-size="10pt" font-family="Arial"  y="15">Quantity</text><text text-decoration="none" x="55" fill="#4b4b4b" font-size="10pt" font-family="noto_regular"  y="15"></text></g></g><g id="8nbl0koi4n"><g transform="translate(210 215)"><ellipse cx="49.275365471839905" cy="25" rx="49.275365471839905" ry="25" fill="rgba(255,255,255,1)" stroke="#5e5ca7" stroke-width="1.5" stroke-linecap="round" stroke-linejoin="round"/></g><g transform="translate(221.2753654718399, 230.5) rotate(0, 38, 9.5)" width="76" height="19"><text text-decoration="none" x="8" fill="rgb(0, 0, 0)" font-weight="bold" font-size="10pt" font-family="Arial"  y="15">FirstName</text><text text-decoration="none" x="68" fill="#4b4b4b" font-size="10pt" font-family="noto_regular"  y="15"></text></g></g><g id="7xp5ajrl4m"><g transform="translate(155 355)"><ellipse cx="49.275365471839905" cy="25" rx="49.275365471839905" ry="25" fill="rgba(255,255,255,1)" stroke="#5e5ca7" stroke-width="1.5" stroke-linecap="round" stroke-linejoin="round"/></g><g transform="translate(167.2753654718399, 370.5) rotate(0, 37, 9.5)" width="74" height="19"><text text-decoration="none" x="7.5" fill="rgb(0, 0, 0)" font-weight="bold" font-size="10pt" font-family="Arial"  y="15">LastName</text><text text-decoration="none" x="66.5" fill="#4b4b4b" font-size="10pt" font-family="noto_regular"  y="15"></text></g></g><g id="99ygrvtwye"><g><path d="M 310,240 L 355,310" fill="none" stroke="#5e5ca7" stroke-width="1.5" stroke-linecap="round" stroke-linejoin="round"/></g></g><g id="7s9i8uf4m5"><g><path d="M 205,355 L 355,310" fill="none" stroke="#5e5ca7" stroke-width="1.5" stroke-linecap="round" stroke-linejoin="round"/></g></g><g id="1se340xu0s"><g transform="translate(985 265)"><rect x="0" y="0" width="98.55073094367981" height="50" fill="rgba(255,255,255,1)" stroke="#5e5ca7" stroke-width="1.5" stroke-linecap="round" stroke-linejoin="round"/></g><g transform="translate(1001.7753654718399, 280.5) rotate(0, 32.5, 9.5)" width="65" height="19"><text text-decoration="none" x="6.5" fill="rgb(0, 0, 0)" font-weight="bold" font-size="10pt" font-family="Arial"  y="15">Products</text><text text-decoration="none" x="58.5" fill="#4b4b4b" font-size="10pt" font-family="noto_regular"  y="15"></text></g></g><g id="3d0x1r9o2i"><g><path d="M 590,295 L 745,290" fill="none" stroke="#5e5ca7" stroke-width="1.5" stroke-linecap="round" stroke-linejoin="round"/></g></g><g id="1gdo8x77ff"><g><path d="M 985,290 L 845,290" fill="none" stroke="#5e5ca7" stroke-width="1.5" stroke-linecap="round" stroke-linejoin="round"/></g></g><g id="35xbeiq2ax"><g><path d="M 710,235 L 795,265" fill="none" stroke="#5e5ca7" stroke-width="1.5" stroke-linecap="round" stroke-linejoin="round"/></g></g><g id="pil9s3w11j"><g><path d="M 1145,230 L 1085,290" fill="none" stroke="#5e5ca7" stroke-width="1.5" stroke-linecap="round" stroke-linejoin="round"/></g></g><g id="1smtve1nuq"><g><path d="M 1170,315 L 1085,290" fill="none" stroke="#5e5ca7" stroke-width="1.5" stroke-linecap="round" stroke-linejoin="round"/></g></g><g id="588jvvsfhz"><g><path d="M 938.25,410 L 1035,315" fill="none" stroke="#5e5ca7" stroke-width="1.5" stroke-linecap="round" stroke-linejoin="round"/></g></g><g id="6ufuqajxhq"><g><path d="M 1035,315 L 1170,400" fill="none" stroke="#5e5ca7" stroke-width="1.5" stroke-linecap="round" stroke-linejoin="round"/></g></g><g id="1uuq1pb4r4"><g transform="translate(1060 475)"><ellipse cx="49.275365471839905" cy="25" rx="49.275365471839905" ry="25" fill="rgba(255,255,255,1)" stroke="#5e5ca7" stroke-width="1.5" stroke-linecap="round" stroke-linejoin="round"/></g><g transform="translate(1068.77536547184, 490.5) rotate(0, 40.5, 9.5)" width="81" height="19"><text text-decoration="none" x="6.5" fill="rgb(0, 0, 0)" font-weight="bold" font-size="10pt" font-family="Arial"  y="15">SupplyType</text><text text-decoration="none" x="74.5" fill="#4b4b4b" font-size="10pt" font-family="noto_regular"  y="15"></text></g></g><g id="201uojicah"><g><path d="M 1110,475 L 1170,450" fill="none" stroke="#5e5ca7" stroke-width="1.5" stroke-linecap="round" stroke-linejoin="round"/></g></g><g id="20xs4r9lk2"><g transform="translate(1160 490)"><ellipse cx="49.275365471839905" cy="25" rx="49.275365471839905" ry="25" fill="rgba(255,255,255,1)" stroke="#5e5ca7" stroke-width="1.5" stroke-linecap="round" stroke-linejoin="round"/></g><g transform="translate(1192.27536547184, 505.5) rotate(0, 17, 9.5)" width="34" height="19"><text text-decoration="none" x="4" fill="rgb(0, 0, 0)" font-weight="bold" font-size="10pt" font-family="Arial"  y="15">Item</text><text text-decoration="none" x="30" fill="#4b4b4b" font-size="10pt" font-family="noto_regular"  y="15"></text></g></g><g id="37sir1u10w"><g><path d="M 1210,490 L 1170,450" fill="none" stroke="#5e5ca7" stroke-width="1.5" stroke-linecap="round" stroke-linejoin="round"/></g></g><g id="8b7czxd92z"><g transform="translate(1195 225)"><ellipse cx="49.275365471839905" cy="25" rx="49.275365471839905" ry="25" fill="rgba(255,255,255,1)" stroke="#5e5ca7" stroke-width="1.5" stroke-linecap="round" stroke-linejoin="round"/></g><g transform="translate(1213.27536547184, 240.5) rotate(0, 31, 9.5)" width="62" height="19"><text text-decoration="none" x="7" fill="rgb(0, 0, 0)" font-weight="bold" font-size="10pt" font-family="Arial"  y="15">Quantity</text><text text-decoration="none" x="55" fill="#4b4b4b" font-size="10pt" font-family="noto_regular"  y="15"></text></g></g><g id="1ib41i7erm"><g><path d="M 1195,250 L 1085,290" fill="none" stroke="#5e5ca7" stroke-width="1.5" stroke-linecap="round" stroke-linejoin="round"/></g></g><g id="2e19xvzj7m"><g transform="translate(215 430)"><ellipse cx="49.275365471839905" cy="25" rx="49.275365471839905" ry="25" fill="rgba(255,255,255,1)" stroke="#5e5ca7" stroke-width="1.5" stroke-linecap="round" stroke-linejoin="round"/></g><g transform="translate(208.7753654718399, 445.5) rotate(0, 55.5, 9.5)" width="111" height="19"><text text-decoration="none" x="11.5" fill="rgb(0, 0, 0)" font-weight="bold" font-size="10pt" font-family="Arial"  y="15">CustomerEmail</text><text text-decoration="none" x="99.5" fill="#4b4b4b" font-size="10pt" font-family="noto_regular"  y="15"></text></g></g><g id="f0dx3t3a89"><g><path d="M 315,455 L 540,435" fill="none" stroke="#5e5ca7" stroke-width="1.5" stroke-linecap="round" stroke-linejoin="round"/></g></g><g id="1g2r2k0thw"><g transform="translate(735 145)"><ellipse cx="60.00000238418579" cy="25" rx="60.00000238418579" ry="25" fill="rgba(255,255,255,1)" stroke="#5e5ca7" stroke-width="1.5" stroke-linecap="round" stroke-linejoin="round"/></g><g transform="translate(744.5000023841858, 160.5) rotate(0, 50.5, 9.5)" width="101" height="19"><text text-decoration="none" x="10.5" fill="rgb(0, 0, 0)" font-weight="bold" font-size="10pt" font-family="Arial"  y="15">DiscountUsed</text><text text-decoration="none" x="90.5" fill="#4b4b4b" font-size="10pt" font-family="noto_regular"  y="15"></text></g></g><g id="20lr6psbma"><g><path d="M 795,195 L 795,265" fill="none" stroke="#5e5ca7" stroke-width="1.5" stroke-linecap="round" stroke-linejoin="round"/></g></g><g id="aykcl10i0i"><g transform="translate(605 435)"><ellipse cx="50" cy="25" rx="50" ry="25" fill="rgba(255,255,255,1)" stroke="#5e5ca7" stroke-width="1.5" stroke-linecap="round" stroke-linejoin="round"/></g><g transform="translate(592, 450.5) rotate(0, 63, 9.5)" width="126" height="19"><text text-decoration="none" x="12.5" fill="rgb(0, 0, 0)" font-weight="bold" font-size="10pt" font-family="Arial"  y="15">CustomerReward</text><text text-decoration="none" x="113.5" fill="#4b4b4b" font-size="10pt" font-family="noto_regular"  y="15"></text></g></g><g id="20z6m2wy6a"><g><path d="M 605,460 L 540,435" fill="none" stroke="#5e5ca7" stroke-width="1.5" stroke-linecap="round" stroke-linejoin="round"/></g></g><g id="2jrxapydgp"><g transform="translate(830 185)"><ellipse cx="50" cy="25" rx="50" ry="25" fill="rgba(255,255,255,1)" stroke="#5e5ca7" stroke-width="1.5" stroke-linecap="round" stroke-linejoin="round"/></g><g transform="translate(862.5, 200.5) rotate(0, 17.5, 9.5)" width="35" height="19"><text text-decoration="none" x="4.5" fill="rgb(0, 0, 0)" font-weight="bold" font-size="10pt" font-family="Arial"  y="15">Date</text><text text-decoration="none" x="30.5" fill="#4b4b4b" font-size="10pt" font-family="noto_regular"  y="15"></text></g></g><g id="cnp6od3661"><g><path d="M 880,235 L 795,265" fill="none" stroke="#5e5ca7" stroke-width="1.5" stroke-linecap="round" stroke-linejoin="round"/></g></g><g id="7ftjgfhiv6"><g transform="translate(135 280)"><ellipse cx="50" cy="25" rx="50" ry="25" fill="rgba(255,255,255,1)" stroke="#5e5ca7" stroke-width="1.5" stroke-linecap="round" stroke-linejoin="round"/></g><g transform="translate(176, 295.5) rotate(0, 9, 9.5)" width="18" height="19"><text text-decoration="none" x="1.5" fill="rgb(0, 0, 0)" font-weight="bold" font-size="10pt" font-family="Arial"  y="15">MI</text><text text-decoration="none" x="16.5" fill="#4b4b4b" font-size="10pt" font-family="noto_regular"  y="15"></text></g></g><g id="2rn06ln0iw"><g><path d="M 235,305 L 355,310" fill="none" stroke="#5e5ca7" stroke-width="1.5" stroke-linecap="round" stroke-linejoin="round"/></g></g><g id="8mzmqxwf23"><g transform="translate(460 385)"><rect x="0" y="0" width="164.9999976158142" height="50" fill="rgba(255,255,255,1)" stroke="#5e5ca7" stroke-width="1.5" stroke-linecap="round" stroke-linejoin="round"/></g><g transform="translate(476.9999988079071, 400.5) rotate(0, 65.5, 9.5)" width="131" height="19"><text text-decoration="none" x="12.5" fill="rgb(0, 0, 0)" font-weight="bold" font-size="10pt" font-family="Arial"  y="15">RewardsMembers</text><text text-decoration="none" x="118.5" fill="#4b4b4b" font-size="10pt" font-family="noto_regular"  y="15"></text></g></g><g id="4p37onbabi"><g><path d="M 540,385 L 540,320" fill="none" stroke="#5e5ca7" stroke-width="1.5" stroke-linecap="round" stroke-linejoin="round"/></g></g><g id="2rl1p25i94"><g transform="translate(385 470)"><ellipse cx="50" cy="25" rx="50" ry="25" fill="rgba(255,255,255,1)" stroke="#5e5ca7" stroke-width="1.5" stroke-linecap="round" stroke-linejoin="round"/></g><g transform="translate(405.5, 485.5) rotate(0, 29.5, 9.5)" width="59" height="19"><text text-decoration="none" x="5" fill="rgb(0, 0, 0)" font-weight="bold" font-size="10pt" font-family="Arial"  y="15">Address</text><text text-decoration="none" x="54" fill="#4b4b4b" font-size="10pt" font-family="noto_regular"  y="15"></text></g></g><g id="19qjuxsi50"><g><path d="M 435,470 L 540,435" fill="none" stroke="#5e5ca7" stroke-width="1.5" stroke-linecap="round" stroke-linejoin="round"/></g></g><g id="xwd387acl1"><g transform="translate(270 520)"><ellipse cx="37.5" cy="25" rx="37.5" ry="25" fill="rgba(255,255,255,1)" stroke="#5e5ca7" stroke-width="1.5" stroke-linecap="round" stroke-linejoin="round"/></g><g transform="translate(288, 535.5) rotate(0, 19.5, 9.5)" width="39" height="19"><text text-decoration="none" x="4" fill="rgb(0, 0, 0)" font-weight="bold" font-size="10pt" font-family="Arial"  y="15">Line1</text><text text-decoration="none" x="35" fill="#4b4b4b" font-size="10pt" font-family="noto_regular"  y="15"></text></g></g><g id="39vawee5er"><g transform="translate(330 580)"><ellipse cx="32.499998807907104" cy="25" rx="32.499998807907104" ry="25" fill="rgba(255,255,255,1)" stroke="#5e5ca7" stroke-width="1.5" stroke-linecap="round" stroke-linejoin="round"/></g><g transform="translate(342.9999988079071, 595.5) rotate(0, 19.5, 9.5)" width="39" height="19"><text text-decoration="none" x="4" fill="rgb(0, 0, 0)" font-weight="bold" font-size="10pt" font-family="Arial"  y="15">Line2</text><text text-decoration="none" x="35" fill="#4b4b4b" font-size="10pt" font-family="noto_regular"  y="15"></text></g></g><g id="1f5q6v80qv"><g transform="translate(405 590)"><ellipse cx="27.500000596046448" cy="25" rx="27.500000596046448" ry="25" fill="rgba(255,255,255,1)" stroke="#5e5ca7" stroke-width="1.5" stroke-linecap="round" stroke-linejoin="round"/></g><g transform="translate(418.50000059604645, 605.5) rotate(0, 14, 9.5)" width="28" height="19"><text text-decoration="none" x="2.5" fill="rgb(0, 0, 0)" font-weight="bold" font-size="10pt" font-family="Arial"  y="15">City</text><text text-decoration="none" x="25.5" fill="#4b4b4b" font-size="10pt" font-family="noto_regular"  y="15"></text></g></g><g id="9qv8agtwxy"><g transform="translate(465 580)"><ellipse cx="30.000001192092896" cy="25" rx="30.000001192092896" ry="25" fill="rgba(255,255,255,1)" stroke="#5e5ca7" stroke-width="1.5" stroke-linecap="round" stroke-linejoin="round"/></g><g transform="translate(475.5000011920929, 595.5) rotate(0, 19.5, 9.5)" width="39" height="19"><text text-decoration="none" x="4.5" fill="rgb(0, 0, 0)" font-weight="bold" font-size="10pt" font-family="Arial"  y="15">State</text><text text-decoration="none" x="34.5" fill="#4b4b4b" font-size="10pt" font-family="noto_regular"  y="15"></text></g></g><g id="1yi23pbb53"><g transform="translate(540 545)"><ellipse cx="27.500000596046448" cy="25" rx="27.500000596046448" ry="25" fill="rgba(255,255,255,1)" stroke="#5e5ca7" stroke-width="1.5" stroke-linecap="round" stroke-linejoin="round"/></g><g transform="translate(556.5000005960464, 560.5) rotate(0, 11, 9.5)" width="22" height="19"><text text-decoration="none" x="2" fill="rgb(0, 0, 0)" font-weight="bold" font-size="10pt" font-family="Arial"  y="15">Zip</text><text text-decoration="none" x="20" fill="#4b4b4b" font-size="10pt" font-family="noto_regular"  y="15"></text></g></g><g id="2284k9k4ci"><g><path d="M 345,545 L 435,520" fill="none" stroke="#5e5ca7" stroke-width="1.5" stroke-linecap="round" stroke-linejoin="round"/></g></g><g id="2lefhyz3v3"><g><path d="M 360,580 L 435,520" fill="none" stroke="#5e5ca7" stroke-width="1.5" stroke-linecap="round" stroke-linejoin="round"/></g></g><g id="1ytzf7z7dp"><g><path d="M 435,590 L 435,520" fill="none" stroke="#5e5ca7" stroke-width="1.5" stroke-linecap="round" stroke-linejoin="round"/></g></g><g id="9rd1a87awc"><g><path d="M 495,580 L 435,520" fill="none" stroke="#5e5ca7" stroke-width="1.5" stroke-linecap="round" stroke-linejoin="round"/></g></g><g id="1yds980byp"><g><path d="M 570,545 L 435,520" fill="none" stroke="#5e5ca7" stroke-width="1.5" stroke-linecap="round" stroke-linejoin="round"/></g></g><g id="7yja2ty5uu"><g transform="translate(790 510)"><ellipse cx="50" cy="25" rx="50" ry="25" fill="rgba(255,255,255,1)" stroke="#5e5ca7" stroke-width="1.5" stroke-linecap="round" stroke-linejoin="round"/></g><g transform="translate(819.5, 525.5) rotate(0, 20.5, 9.5)" width="41" height="19"><text text-decoration="underline" x="5" fill="rgb(0, 0, 0)" font-weight="bold" font-size="10pt" font-family="Arial"  y="15">PetID</text><text text-decoration="none" x="36" fill="#4b4b4b" font-size="10pt" font-family="noto_regular"  y="15"></text></g></g><g id="89bc04ybqa"><g><path d="M 840,510 L 938.25,460" fill="none" stroke="#5e5ca7" stroke-width="1.5" stroke-linecap="round" stroke-linejoin="round"/></g></g><g id="1wgqum8ip0"><g transform="translate(935 585)"><ellipse cx="50" cy="25" rx="50" ry="25" fill="rgba(255,255,255,1)" stroke="#5e5ca7" stroke-width="1.5" stroke-linecap="round" stroke-linejoin="round"/></g><g transform="translate(940, 592.5) rotate(0, 45, 17.5)" width="90" height="35"><text text-decoration="none" x="10.5" fill="rgb(0, 0, 0)" font-weight="bold" font-size="10pt" font-family="Arial"  y="12">PetsDate&#160;</text><text text-decoration="none" x="65.5" fill="rgb(0, 0, 0)" font-weight="bold" font-size="10pt" font-family="Arial"  y="12">Of&#160;</text><text text-decoration="none" x="31.5" fill="rgb(0, 0, 0)" font-weight="bold" font-size="10pt" font-family="Arial"  y="31">Birth</text><text text-decoration="none" x="58.5" fill="#4b4b4b" font-size="10pt" font-family="noto_regular"  y="31"></text></g></g><g id="25srmogar4"><g><path d="M 985,585 L 938.25,460" fill="none" stroke="#5e5ca7" stroke-width="1.5" stroke-linecap="round" stroke-linejoin="round"/></g></g><g id="2cwb39006n"><g transform="translate(710 470)"><path d="M 100,25 L 50,50 L 0,25 L 50,0 Z" fill="rgb(255, 255, 255)" stroke="rgb(94, 92, 167)" stroke-width="1.5" vector-effect="non-scaling-stroke"/></g><g transform="translate(741, 483.5) rotate(0, 0, 0)" width="41" height="19"><text text-decoration="none" x="0" fill="#000000" font-weight="bold" font-size="11pt" font-family="Arial"  y="15">HAS&#160;</text><text text-decoration="none" x="34" fill="#4b4b4b" font-size="10pt" font-family="noto_regular"  y="15"></text></g></g><g id="969ngh8ofd"><g transform="translate(705 600)"><rect x="0" y="0" width="100" height="50" fill="rgba(255,255,255,1)" stroke="#5e5ca7" stroke-width="1.5" stroke-linecap="round" stroke-linejoin="round"/></g><g transform="translate(723, 615.5) rotate(0, 32, 9.5)" width="64" height="19"><text text-decoration="none" x="6.5" fill="rgb(0, 0, 0)" font-weight="bold" font-size="10pt" font-family="Arial"  y="15">Facilities</text><text text-decoration="none" x="57.5" fill="#4b4b4b" font-size="10pt" font-family="noto_regular"  y="15"></text></g></g><g id="1onvdlnxfl"><g><path d="M 755,600 L 760,520" fill="none" stroke="#5e5ca7" stroke-width="1.5" stroke-linecap="round" stroke-linejoin="round"/></g></g><g id="1qiq8b06z1"><g transform="translate(650 700)"><ellipse cx="50" cy="25" rx="50" ry="25" fill="rgba(255,255,255,1)" stroke="#5e5ca7" stroke-width="1.5" stroke-linecap="round" stroke-linejoin="round"/></g><g transform="translate(664.5, 715.5) rotate(0, 35.5, 9.5)" width="71" height="19"><text text-decoration="none" x="7.5" fill="rgb(0, 0, 0)" font-weight="bold" font-size="10pt" font-family="Arial"  y="15">Grooming</text><text text-decoration="none" x="63.5" fill="#4b4b4b" font-size="10pt" font-family="noto_regular"  y="15"></text></g></g><g id="3aquelgyd7"><g transform="translate(815 695)"><ellipse cx="50" cy="25" rx="50" ry="25" fill="rgba(255,255,255,1)" stroke="#5e5ca7" stroke-width="1.5" stroke-linecap="round" stroke-linejoin="round"/></g><g transform="translate(853, 710.5) rotate(0, 12, 9.5)" width="24" height="19"><text text-decoration="none" x="2" fill="rgb(0, 0, 0)" font-weight="bold" font-size="10pt" font-family="Arial"  y="15">Vet</text><text text-decoration="none" x="22" fill="#4b4b4b" font-size="10pt" font-family="noto_regular"  y="15"></text></g></g><g id="25k994cm1d"><g><path d="M 700,700 L 755,650" fill="none" stroke="#5e5ca7" stroke-width="1.5" stroke-linecap="round" stroke-linejoin="round"/></g></g><g id="6sn4povo1c"><g><path d="M 865,695 L 755,650" fill="none" stroke="#5e5ca7" stroke-width="1.5" stroke-linecap="round" stroke-linejoin="round"/></g></g><g id="57o20xtnod"><g transform="translate(985 75)"><rect x="0" y="0" width="100" height="50" fill="rgba(255,255,255,1)" stroke="#5e5ca7" stroke-width="1.5" stroke-linecap="round" stroke-linejoin="round"/></g><g transform="translate(996.5, 90.5) rotate(0, 38.5, 9.5)" width="77" height="19"><text text-decoration="none" x="8.5" fill="rgb(0, 0, 0)" font-weight="bold" font-size="10pt" font-family="Arial"  y="15">Pet&#160;</text><text text-decoration="none" x="30.5" fill="rgb(0, 0, 0)" font-weight="bold" font-size="10pt" font-family="Arial"  y="15">Stores</text><text text-decoration="none" x="68.5" fill="#4b4b4b" font-size="10pt" font-family="noto_regular"  y="15"></text></g></g><g id="2j9ptz801r"><g transform="translate(985 180)"><path d="M 100,25 L 50,50 L 0,25 L 50,0 Z" fill="rgb(255, 255, 255)" stroke="rgb(94, 92, 167)" stroke-width="1.5" vector-effect="non-scaling-stroke"/></g><g transform="translate(1017, 193.5) rotate(0, 0, 0)" width="37" height="19"><text text-decoration="none" x="0" fill="#000000" font-weight="bold" font-size="11pt" font-family="Arial"  y="15">Has&#160;</text><text text-decoration="none" x="31" fill="#4b4b4b" font-size="10pt" font-family="noto_regular"  y="15"></text></g></g><g id="1v3l3a0jo9"><g transform="translate(845 25)"><ellipse cx="50" cy="25" rx="50" ry="25" fill="rgba(255,255,255,1)" stroke="#5e5ca7" stroke-width="1.5" stroke-linecap="round" stroke-linejoin="round"/></g><g transform="translate(841.5, 40.5) rotate(0, 53.5, 9.5)" width="107" height="19"><text text-decoration="underline" x="11.5" fill="rgb(0, 0, 0)" font-weight="bold" font-size="10pt" font-family="Arial"  y="15">PetStoreName</text><text text-decoration="none" x="95.5" fill="#4b4b4b" font-size="10pt" font-family="noto_regular"  y="15"></text></g></g><g id="29bpazn1gy"><g transform="translate(1165 15)"><ellipse cx="50" cy="25" rx="50" ry="25" fill="rgba(255,255,255,1)" stroke="#5e5ca7" stroke-width="1.5" stroke-linecap="round" stroke-linejoin="round"/></g><g transform="translate(1173.5, 30.5) rotate(0, 41.5, 9.5)" width="83" height="19"><text text-decoration="none" x="9" fill="rgb(0, 0, 0)" font-weight="bold" font-size="10pt" font-family="Arial"  y="15">Description</text><text text-decoration="none" x="74" fill="#4b4b4b" font-size="10pt" font-family="noto_regular"  y="15"></text></g></g><g id="d44lz975gw"><g transform="translate(1025 -20)"><ellipse cx="50" cy="25" rx="50" ry="25" fill="rgba(255,255,255,1)" stroke="#5e5ca7" stroke-width="1.5" stroke-linecap="round" stroke-linejoin="round"/></g><g transform="translate(1045.5, -12.5) rotate(0, 29.5, 17.5)" width="59" height="35"><text text-decoration="none" x="6.5" fill="rgb(0, 0, 0)" font-weight="bold" font-size="10pt" font-family="Arial"  y="12">PetSore</text><text text-decoration="none" x="52.5" fill="rgb(0, 0, 0)" font-weight="bold" font-size="10pt" font-family="Arial"  y="12"></text><text text-decoration="none" x="5" fill="rgb(0, 0, 0)" font-weight="bold" font-size="10pt" font-family="Arial"  y="31">Address</text><text text-decoration="none" x="54" fill="#4b4b4b" font-size="10pt" font-family="noto_regular"  y="31"></text></g></g><g id="2lqk1yhjpz"><g><path d="M 945,50 L 1035,75" fill="none" stroke="#5e5ca7" stroke-width="1.5" stroke-linecap="round" stroke-linejoin="round"/></g></g><g id="1r7c9phgmm"><g><path d="M 1035,265 L 1035,230" fill="none" stroke="#5e5ca7" stroke-width="1.5" stroke-linecap="round" stroke-linejoin="round"/></g></g><g id="jffgn77djk"><g><path d="M 1035,180 L 1035,125" fill="none" stroke="#5e5ca7" stroke-width="1.5" stroke-linecap="round" stroke-linejoin="round"/></g></g><g id="6u4m2v7vib"><g><path d="M 1165,40 L 1035,75" fill="none" stroke="#5e5ca7" stroke-width="1.5" stroke-linecap="round" stroke-linejoin="round"/></g></g><g id="a00hivje06"><g><path d="M 888.25,435 L 760,435 L 760,470" fill="none" stroke="#5e5ca7" stroke-width="1.5" stroke-linecap="round" stroke-linejoin="round"/></g></g><g id="4nnldcn8a5"><g><path d="M 1035,75 L 1075,30" fill="none" stroke="#5e5ca7" stroke-width="1.5" stroke-linecap="round" stroke-linejoin="round"/></g></g><g id="n5xoknkys7"><g transform="translate(825 585)"><ellipse cx="50" cy="25" rx="50" ry="25" fill="rgba(255,255,255,1)" stroke="#5e5ca7" stroke-width="1.5" stroke-linecap="round" stroke-linejoin="round"/></g><g transform="translate(841, 600.5) rotate(0, 34, 9.5)" width="68" height="19"><text text-decoration="none" x="7.5" fill="rgb(0, 0, 0)" font-weight="bold" font-size="10pt" font-family="Arial"  y="15">PetName</text><text text-decoration="none" x="60.5" fill="#4b4b4b" font-size="10pt" font-family="noto_regular"  y="15"></text></g></g><g id="2guk7wtl02"><g><path d="M 875,585 L 938.25,460" fill="none" stroke="#5e5ca7" stroke-width="1.5" stroke-linecap="round" stroke-linejoin="round"/></g></g></svg>